<svg width="54" height="54" viewBox="0 0 54 54" fill="none" xmlns="http://www.w3.org/2000/svg">
<path fill-rule="evenodd" clip-rule="evenodd" d="M27 54C41.9117 54 54 41.9117 54 27C54 12.0883 41.9117 0 27 0C12.0883 0 0 12.0883 0 27C0 41.9117 12.0883 54 27 54ZM24.404 19.2759C23.5467 18.5794 22.2871 18.7097 21.5906 19.5669C20.8941 20.4242 21.0244 21.6838 21.8816 22.3804L27.9712 27.3281L21.8816 32.2759C21.0244 32.9724 20.8941 34.232 21.5906 35.0893C22.2871 35.9466 23.5467 36.0769 24.404 35.3804L32.404 28.8804C32.8714 28.5006 33.1428 27.9304 33.1428 27.3281C33.1428 26.7259 32.8714 26.1557 32.404 25.7759L24.404 19.2759Z" fill="white"/>
</svg>
