<svg width="82" height="82" viewBox="0 0 82 82" fill="none" xmlns="http://www.w3.org/2000/svg">
<path d="M33.5413 35.5389C33.063 35.2627 32.4514 35.4266 32.1753 35.9049C31.8992 36.3832 32.063 36.9948 32.5413 37.2709L33.5413 35.5389ZM48.4591 46.461C48.9374 46.7372 49.5489 46.5733 49.8251 46.095C50.1012 45.6167 49.9374 45.0051 49.4591 44.729L48.4591 46.461ZM46.4613 33.5411C46.7374 33.0628 46.5735 32.4512 46.0952 32.1751C45.617 31.8989 45.0054 32.0628 44.7292 32.5411L46.4613 33.5411ZM35.5391 48.4588C35.263 48.9371 35.4268 49.5487 35.9051 49.8249C36.3834 50.101 36.995 49.9371 37.2712 49.4588L35.5391 48.4588ZM51.0914 78.6615C30.2915 84.2348 8.91179 71.8913 3.33848 51.0914L1.40663 51.609C7.26582 73.4758 29.7422 86.4526 51.609 80.5934L51.0914 78.6615ZM78.6615 30.9086C84.2348 51.7085 71.8913 73.0882 51.0914 78.6615L51.609 80.5934C73.4758 74.7342 86.4526 52.2578 80.5934 30.391L78.6615 30.9086ZM30.9086 3.33848C51.7085 -2.23483 73.0882 10.1087 78.6615 30.9086L80.5934 30.391C74.7342 8.52417 52.2578 -4.45257 30.391 1.40663L30.9086 3.33848ZM30.391 1.40663C8.52417 7.26582 -4.45257 29.7422 1.40663 51.609L3.33848 51.0914C-2.23483 30.2915 10.1087 8.91179 30.9086 3.33848L30.391 1.40663ZM32.5413 37.2709L48.4591 46.461L49.4591 44.729L33.5413 35.5389L32.5413 37.2709ZM44.7292 32.5411L35.5391 48.4588L37.2712 49.4588L46.4613 33.5411L44.7292 32.5411Z" fill="white"/>
</svg>
