<svg width="76" height="43" viewBox="0 0 76 43" fill="none" xmlns="http://www.w3.org/2000/svg">
<path fill-rule="evenodd" clip-rule="evenodd" d="M38.0002 22.9999C26.177 22.9999 15.6662 14.2737 13.1519 1.99244C13.0522 1.50511 12.7662 1.07803 12.3569 0.805169C11.9476 0.532303 11.4485 0.435997 10.9694 0.537443C10.4903 0.638888 10.0704 0.929772 9.80214 1.3461C9.53388 1.76243 9.4392 2.27011 9.53894 2.75744C10.1617 5.79438 11.2154 8.64485 12.6232 11.2464L1.46447 20.6097C0.618322 21.3197 0.507954 22.5812 1.21796 23.4273C1.92796 24.2735 3.18947 24.3838 4.03562 23.6738L14.7756 14.662C16.7853 17.4256 19.2321 19.8087 21.9926 21.7108L14.7587 34.2403C14.2064 35.1969 14.5341 36.4201 15.4907 36.9724C16.4473 37.5247 17.6705 37.1969 18.2228 36.2403L25.4344 23.7494C28.6953 25.3881 32.2706 26.4075 36.0002 26.6776V40.2499C36.0002 41.3545 36.8956 42.2499 38.0002 42.2499C39.1048 42.2499 40.0002 41.3545 40.0002 40.2499V26.6776C43.8008 26.4024 47.4412 25.349 50.7521 23.6551L58.0182 36.2403C58.5704 37.1969 59.7936 37.5247 60.7502 36.9724C61.7068 36.4201 62.0345 35.1969 61.4823 34.2403L54.1795 21.5916C56.9113 19.6804 59.3305 17.2958 61.3157 14.5364L72.2053 23.6738C73.0514 24.3838 74.313 24.2735 75.023 23.4273C75.733 22.5812 75.6226 21.3197 74.7765 20.6097L63.452 11.1073C64.8223 8.54339 65.8498 5.74036 66.4615 2.75744C66.5612 2.27011 66.4665 1.76243 66.1983 1.3461C65.93 0.929772 65.5102 0.638888 65.031 0.537443C64.5519 0.435997 64.0528 0.532303 63.6435 0.805169C63.2342 1.07803 62.9482 1.50511 62.8485 1.99244C60.3305 14.2737 49.8197 22.9999 38.0002 22.9999Z" fill="#3F3F3F"/>
</svg>
